<?xml version="1.0"?>
<svg xmlns="http://www.w3.org/2000/svg" id="Layer_1" data-name="Layer 1" viewBox="0 0 512 512" width="512" height="512"><title>b1</title><rect x="141" y="255" width="38" height="68"/><rect x="40" y="197" width="38" height="126"/><path d="M58.926,149.7A33.9,33.9,0,0,0,86.3,135.784l41.147,28.651a33.93,33.93,0,1,0,66.348,4.178l43.14-36.384a33.9,33.9,0,0,0,56.184-35.583l39.363-36.078a33.9,33.9,0,1,0-3.673-15.325c0,.785.036,1.561.089,2.332L286.729,86.222a33.912,33.912,0,0,0-56.463,35.932L189.624,156.43a33.885,33.885,0,0,0-56.941-2.969l-41.078-28.6A33.922,33.922,0,1,0,58.926,149.7Z"/><path d="M280,286.742V189H243V323h9.842A137.864,137.864,0,0,1,280,286.742Z"/><path d="M381,126H344V255.709a116.346,116.346,0,0,1,19.489-1.585A112.721,112.721,0,0,1,381,255.405Z"/><path d="M290.155,293.907a112.353,112.353,0,0,0-28.029,38.019,111.388,111.388,0,1,0,28.029-38.019Zm172.876,83.5a99.311,99.311,0,1,1-99.31-99.311A99.424,99.424,0,0,1,463.031,377.4Z"/><path d="M276.409,377.4a87.311,87.311,0,1,0,87.312-87.311A87.411,87.411,0,0,0,276.409,377.4ZM370,311.556v9.4a33.288,33.288,0,0,1,26.882,32.465,6.053,6.053,0,0,1-12.105,0,21.035,21.035,0,1,0-21.052,21.021A33.032,33.032,0,0,1,370,439.933v10.633a6,6,0,1,1-12,0V439.933a32.585,32.585,0,0,1-27.161-32.465,5.948,5.948,0,1,1,11.895,0,21.026,21.026,0,0,0,20.811,21.012c.065,0,.119-.01.184-.01s.124.008.189.01a21.017,21.017,0,0,0-.2-42.034,32.94,32.94,0,0,1-32.882-33.021A32.584,32.584,0,0,1,358,320.96v-9.4a6,6,0,0,1,12,0Z"/></svg>
