<svg height="480pt" viewBox="0 0 480 480" width="480pt" xmlns="http://www.w3.org/2000/svg"><path d="m472 0h-272c-4.417969 0-8 3.582031-8 8v24h-24c-4.417969 0-8 3.582031-8 8v120h16v-112h256v296h-48c-4.417969 0-8 3.582031-8 8v48h-120v16h128c2.121094-.003906 4.152344-.847656 5.65625-2.34375l29.65625-29.65625h52.6875c4.417969 0 8-3.582031 8-8v-368c0-4.417969-3.582031-8-8-8zm-80 360h28.6875l-28.6875 28.6875zm72 8h-28.6875l10.34375-10.34375c.667969-.679688 1.210938-1.472656 1.601562-2.34375.109376-.25.175782-.496094.261719-.753906.230469-.660156.367188-1.355469.410157-2.054688 0-.175781.101562-.328125.101562-.503906v-312c0-4.417969-3.582031-8-8-8h-232.03125v-16h256zm0 0"/><path d="m248 168h152v16h-152zm0 0"/><path d="m200 96v64h16v-11.054688l24-12 28.425781 14.253907c3.605469 1.804687 7.992188.636719 10.230469-2.71875l25.34375-38.082031 25.34375 38.015624c1.3125 2.015626 3.464844 3.332032 5.855469 3.585938 2.390625.269531 4.769531-.582031 6.449219-2.304688l26.351562-26.382812 26.34375 26.34375 11.3125-11.3125-32-32c-3.125-3.121094-8.1875-3.121094-11.3125 0l-25.105469 25.097656-26.582031-39.882812c-1.570312-2.097656-4.035156-3.332032-6.65625-3.332032s-5.085938 1.234376-6.65625 3.332032l-28.078125 42.128906-25.691406-12.847656c-2.25-1.125-4.898438-1.125-7.148438 0l-20.425781 10.214844v-35.054688zm0 0"/><path d="m416 264c0-26.507812-21.492188-48-48-48s-48 21.492188-48 48 21.492188 48 48 48c12.75.0625 24.996094-4.972656 34.011719-13.988281s14.050781-21.261719 13.988281-34.011719zm-40-30.984375c4.953125 1.277344 9.523438 3.730469 13.328125 7.152344l-13.328125 8.878906zm-40 30.984375c.023438-14.585938 9.882812-27.320312 24-30.992188v30.992188c-.019531 3.71875 2.542969 6.949219 6.167969 7.777344.214843.046875.433593.046875.648437.078125.390625.074219.785156.125 1.183594.144531h.191406c.457032-.03125.90625-.097656 1.351563-.199219.289062-.066406.578125-.074219.847656-.160156.726563-.222656 1.414063-.546875 2.050781-.960937l25.773438-17.183594c4.191406 12.015625.863281 25.371094-8.472656 34.015625-9.339844 8.644531-22.910157 10.9375-34.570313 5.835937-11.65625-5.101562-19.183594-16.621094-19.171875-29.347656zm0 0"/><path d="m256 232h48v16h-48zm0 0"/><path d="m256 200h64v16h-64zm0 0"/><path d="m256 264h48v16h-48zm0 0"/><path d="m256 296h48v16h-48zm0 0"/><path d="m256 328h104v16h-104zm0 0"/><path d="m256 360h64v16h-64zm0 0"/><path d="m336 360h24v16h-24zm0 0"/><path d="m384 64h32v16h-32zm0 0"/><path d="m352 64h16v16h-16zm0 0"/><path d="m32 480h176c17.671875 0 32-14.328125 32-32v-240c0-17.671875-14.328125-32-32-32h-64v-64c0-2.773438-1.433594-5.347656-3.792969-6.808594-2.355469-1.457031-5.300781-1.589844-7.78125-.351562l-12.425781 6.214844-12.425781-6.214844c-2.25-1.125-4.898438-1.125-7.148438 0l-12.425781 6.214844-12.425781-6.214844c-2.25-1.125-4.898438-1.125-7.148438 0l-12.425781 6.214844-12.425781-6.214844c-2.480469-1.238282-5.425781-1.105469-7.78125.351562-2.359375 1.460938-3.792969 4.035156-3.792969 6.808594v64c-17.671875 0-32 14.328125-32 32v240c0 17.671875 14.328125 32 32 32zm16-355.054688 4.425781 2.214844c2.25 1.125 4.898438 1.125 7.148438 0l12.425781-6.214844 12.425781 6.214844c2.25 1.125 4.898438 1.125 7.148438 0l12.425781-6.214844 12.425781 6.214844c2.25 1.125 4.898438 1.125 7.148438 0l4.425781-2.214844v83.054688h-80zm-32 83.054688c0-8.835938 7.164062-16 16-16v24c0 4.417969 3.582031 8 8 8h96c4.417969 0 8-3.582031 8-8v-24h64c8.835938 0 16 7.164062 16 16v240c0 8.835938-7.164062 16-16 16h-176c-8.835938 0-16-7.164062-16-16zm0 0"/><path d="m64 144h48v16h-48zm0 0"/><path d="m64 176h48v16h-48zm0 0"/><path d="m40 320h160c4.417969 0 8-3.582031 8-8v-64c0-4.417969-3.582031-8-8-8h-160c-4.417969 0-8 3.582031-8 8v64c0 4.417969 3.582031 8 8 8zm8-64h144v48h-144zm0 0"/><path d="m40 384h32c4.417969 0 8-3.582031 8-8v-32c0-4.417969-3.582031-8-8-8h-32c-4.417969 0-8 3.582031-8 8v32c0 4.417969 3.582031 8 8 8zm8-32h16v16h-16zm0 0"/><path d="m40 448h32c4.417969 0 8-3.582031 8-8v-32c0-4.417969-3.582031-8-8-8h-32c-4.417969 0-8 3.582031-8 8v32c0 4.417969 3.582031 8 8 8zm8-32h16v16h-16zm0 0"/><path d="m136 400h-32c-4.417969 0-8 3.582031-8 8v32c0 4.417969 3.582031 8 8 8h32c4.417969 0 8-3.582031 8-8v-32c0-4.417969-3.582031-8-8-8zm-8 32h-16v-16h16zm0 0"/><path d="m136 336h-32c-4.417969 0-8 3.582031-8 8v32c0 4.417969 3.582031 8 8 8h32c4.417969 0 8-3.582031 8-8v-32c0-4.417969-3.582031-8-8-8zm-8 32h-16v-16h16zm0 0"/><path d="m200 336h-32c-4.417969 0-8 3.582031-8 8v96c0 4.417969 3.582031 8 8 8h32c4.417969 0 8-3.582031 8-8v-96c0-4.417969-3.582031-8-8-8zm-8 96h-16v-80h16zm0 0"/></svg>