
<svg width="47px" height="44px" viewBox="0 0 47 44" version="1.1" xmlns="http://www.w3.org/2000/svg" xmlns:xlink="http://www.w3.org/1999/xlink">
    <!-- Generator: Sketch 48.2 (47327) - http://www.bohemiancoding.com/sketch -->
    <desc>Created with Sketch.</desc>
    <defs></defs>
    <g id="Page-1" stroke="none" stroke-width="1" fill="none" fill-rule="evenodd">
        <g id="Desktop" transform="translate(-32.000000, -661.000000)" fill="#FFA07D" fill-rule="nonzero">
            <g id="education" transform="translate(32.000000, 661.000000)">
                <path d="M33.4946438,39.0256465 C33.1373603,38.9122824 32.7754681,39.1855867 32.6868112,39.6314272 L32.0202829,42.9642948 C31.9302981,43.4116976 32.1482301,43.863299 32.5055136,43.9750032 C32.5594889,43.9924814 32.6141672,44 32.6675176,44 C32.9661391,44 33.2374215,43.7474938 33.3134244,43.3692226 L33.9799527,40.036355 C34.0692345,39.5897334 33.8519274,39.1373508 33.4946438,39.0256465 Z" id="Shape"></path>
                <path d="M23.5718089,24 C23.6739228,24 23.7761286,23.9800312 23.8719812,23.93925 L32.5150085,20.297625 C32.9157293,20.1287812 33.105869,19.6607812 32.9401298,19.2527812 C32.7742984,18.8439375 32.3130828,18.6519375 31.9131908,18.8191875 L23.5718089,22.3343438 L1.57148462,13.0655625 L1.57148462,12.7999687 C1.57148462,12.3584062 1.2194728,12 0.78578835,12 C0.352103896,12 0,12.3584063 0,12.7999687 L0,13.5999375 C0,13.9239375 0.191705102,14.2159687 0.485616095,14.3391562 L23.2717288,23.9391562 C23.3674892,23.9799375 23.4696951,24 23.5718089,24 Z" id="Shape"></path>
                <path d="M32.9183448,32.0355636 C32.7277342,31.6447709 32.2605462,31.4836985 31.8722756,31.677152 C30.3886812,32.4184923 27.9105611,33.2805677 24.405964,33.3982496 L24.405964,26.3157797 C24.405964,25.8800237 24.055962,25.5263304 23.6247538,25.5263304 C23.1935455,25.5263304 22.8435435,25.8800237 22.8435435,26.3157797 L22.8435435,33.3911257 C13.1429139,33.0785101 10.0124884,27.1400155 9.56242044,26.1515617 L9.56242044,20.7894493 C9.56242044,20.3536933 9.21241849,20 8.78121022,20 C8.35000195,20 8,20.3536933 8,20.7894493 L8,26.3157797 C8,26.4160684 8.01876809,26.5155244 8.0554803,26.6094294 C8.1914345,26.9512804 11.5164073,35 23.6248453,35 C27.8568203,35 30.8224529,33.9626045 32.5645892,33.0925727 C32.9518527,32.8992118 33.1105117,32.4263563 32.9183448,32.0355636 Z" id="Shape"></path>
                <path d="M34.5,40 C34.2234853,40 34,40.3584119 34,40.7999812 L34,43.2000188 C34,43.6415881 34.2234853,44 34.5,44 C34.7765147,44 35,43.6415881 35,43.2000188 L35,40.7999812 C35,40.3584119 34.7765147,40 34.5,40 Z" id="Shape"></path>
                <path d="M46.216607,11.6998675 C45.7834184,11.6998675 45.4333058,12.0493137 45.4333058,12.4798373 L45.4333058,12.7372374 L36.0333242,16.5896467 L36.0333242,15.1801618 L46.5158642,10.8604835 C46.8087875,10.7403757 47,10.4556451 47,10.139745 C47,9.82384485 46.8088793,9.53993693 46.5166904,9.41900641 L23.7992113,0.0590941637 C23.6072644,-0.0196980546 23.3926438,-0.0196980546 23.2007887,0.0590941637 L0.484135773,9.41909782 C0.19112072,9.54002834 0,9.82393626 0,10.1398364 C0,10.4557365 0.19112072,10.7404671 0.484135773,10.8605749 L23.2007887,20.2205786 C23.296349,20.2603403 23.3981516,20.2799013 23.5000459,20.2799013 C23.6019402,20.2799013 23.7037428,20.2604317 23.7993031,20.2205786 L32.0133633,16.8361695 C32.4136886,16.6723694 32.6032488,16.2160692 32.437923,15.8174464 C32.2725971,15.4196463 31.814348,15.2316235 31.4148488,15.3954236 L23.4999541,18.6558858 L2.83174447,10.1398364 L23.4999541,1.62378696 L44.1681637,10.1398364 L35.1747497,13.84563 L26.5604559,10.6429366 C26.6058953,10.4806904 26.6333425,10.3137825 26.6333425,10.1398364 C26.6333425,8.82788196 25.2570347,7.79983547 23.5000459,7.79983547 C21.7430571,7.79983547 20.3667493,8.82788196 20.3667493,10.1398364 C20.3667493,11.4517908 21.7430571,12.4798373 23.5000459,12.4798373 C24.2841733,12.4798373 24.9836641,12.2668607 25.5272841,11.9237215 L34.4666299,15.2473454 L34.4666299,17.7464847 L34.4666299,17.7473073 L34.4666299,34.463506 C33.5572001,34.7871757 32.8999357,35.6443838 32.8999357,36.6599991 C32.8999357,37.9501074 33.9543126,39 35.2499312,39 C36.5455497,39 37.5999266,37.9501074 37.5999266,36.6599991 C37.5999266,35.6444753 36.942754,34.7872671 36.0332324,34.463506 L36.0332324,30.0362426 C38.2821596,28.3459576 39.0882264,26.094895 39.1234763,25.9950793 C39.1516579,25.9131793 39.166529,25.8266175 39.166529,25.7400558 L39.166529,20.2800841 C39.166529,19.8495605 38.8164164,19.5001143 38.3832278,19.5001143 C37.9500392,19.5001143 37.5999266,19.8495605 37.5999266,20.2800841 L37.5999266,25.5958166 C37.4644346,25.9265246 36.9936094,26.9459789 36.0332324,27.9521793 L36.0332324,18.2768239 L46.5150381,13.9813684 C46.8087875,13.8612605 46.9999082,13.5757987 46.9999082,13.2598985 L46.9999082,12.4799287 C46.9999082,12.0493137 46.6497956,11.6998675 46.216607,11.6998675 Z M23.4999541,10.9198062 C22.5435243,10.9198062 21.9332599,10.4580217 21.9332599,10.1398364 C21.9332599,9.8215597 22.5434325,9.35986655 23.4999541,9.35986655 C24.4564757,9.35986655 25.0666483,9.8216511 25.0666483,10.1398364 C25.0666483,10.4581131 24.4563839,10.9198062 23.4999541,10.9198062 Z M35.2499312,37.4398775 C34.8175687,37.4398775 34.4666299,37.0897 34.4666299,36.6599077 C34.4666299,36.2301153 34.8175687,35.8799378 35.2499312,35.8799378 C35.6822936,35.8799378 36.0332324,36.2301153 36.0332324,36.6599077 C36.0332324,37.0896086 35.6822936,37.4398775 35.2499312,37.4398775 Z" id="Shape"></path>
                <path d="M38.3132558,39.6311695 C38.2239662,39.1854004 37.8612613,38.9128611 37.5053527,39.0253531 C37.1480379,39.1369663 36.9307118,39.5894732 37.0200796,40.0361212 L37.6866661,43.3691854 C37.7626755,43.7474789 38.0339816,44 38.3326292,44 C38.3859843,44 38.4405892,43.992481 38.4946473,43.9750018 C38.8519621,43.8633886 39.0692882,43.4116629 38.9799204,42.9642337 L38.3132558,39.6311695 Z" id="Shape"></path>
            </g>
        </g>
    </g>
</svg>